<?xml version="1.0" standalone="no"?><!DOCTYPE svg PUBLIC "-//W3C//DTD SVG 1.1//EN" "http://www.w3.org/Graphics/SVG/1.1/DTD/svg11.dtd"><svg t="1709544813104" class="icon" viewBox="0 0 1028 1024" version="1.1" xmlns="http://www.w3.org/2000/svg" p-id="3193" xmlns:xlink="http://www.w3.org/1999/xlink" width="200.78125" height="200"><path d="M566.211765 0c31.844392 9.356549 49.152 34.816 66.620235 60.114824 6.063686 8.754196 12.288 17.468235 18.873725 25.820862 11.685647 14.858039 25.379137 19.19498 45.417412 16.062745 54.171608-8.513255 101.63702 4.73851 136.814432 50.718118 7.710118 10.079373 8.914824 16.986353-0.401569 25.379137-7.830588 7.067608-14.737569 15.460392-23.491765 21.162667-20.961882 13.613176-42.646588 26.182275-64.331294 38.711216-3.573961 2.048-8.473098 1.847216-15.982431 3.333019 5.38102-9.59749 9.115608-16.183216 12.810039-22.809098l-2.489725-3.45349c-10.521098 6.826667-21.12251 13.532863-31.523138 20.48-24.897255 16.584784-51.119686 31.563294-74.169725 50.396863-20.640627 16.825725-20.399686 32.00502-4.899137 57.98651 4.216471-3.092078 9.517176-5.260549 12.047058-9.195922 11.886431-18.432 29.836549-22.889412 49.03153-19.034353 22.688627 4.577882 45.096157 11.284078 66.861176 19.19498 14.657255 5.340863 18.351686 17.548549 8.513255 30.639687-6.344784 8.392784-14.536784 15.420235-22.206745 22.728784-8.95498 8.513255-18.231216 16.705255-27.346823 25.017726 0.923608 1.445647 1.807059 2.931451 2.730666 4.377098 3.935373-0.803137 8.513255-0.522039 11.725804-2.489726 39.032471-24.415373 84.851451-25.660235 127.73898-35.819922 28.792471-6.826667 51.802353 12.569098 69.471373 35.137255 9.035294 11.565176 17.187137 23.81302 26.021647 35.578981 19.957961 26.624 4.417255 68.387137-28.390902 70.234353-68.106039 3.774745-128.582275 26.423216-183.275921 66.17851-2.69051 1.927529-5.621961 3.493647-8.432942 5.260549-1.606275-1.204706-3.252706-2.409412-4.85898-3.614118 6.826667-8.995137 13.010824-18.592627 20.680784-26.784628 8.272314-8.754196 17.950118-16.183216 27.025569-24.174431-1.686588-2.69051-3.373176-5.38102-5.019608-8.071529-19.275294 8.83451-38.590745 17.66902-57.825882 26.583843-10.159686 4.698353-19.797333 12.087216-30.438902 14.014745-47.626039 8.593569-77.101176 40.156863-94.448941 80.875921-18.913882 44.373333-44.815059 82.522353-76.057098 118.543059-16.424157 18.913882-29.595608 41.000157-41.923765 63.006118-18.391843 32.928627-47.264627 53.047216-80.875922 64.692706-39.393882 13.613176-80.51451 22.407529-122.839843 22.126431-4.296784-0.040157-8.633725-0.883451-15.179294-4.296784 115.210039-44.29302 189.138824-121.635137 210.944-250.096941-11.886431 2.529882-18.030431 3.573961-24.013804 5.140078-40.96 10.440784-79.349961 3.092078-115.410823-17.468235-21.805176-12.448627-30.157804-30.278275-25.178353-49.593726 5.099922-19.83749 22.367373-32.607373 45.457568-35.217568 51.762196-5.943216 103.444078-12.488784 146.733177-45.658353 18.954039-14.496627 31.402667-32.888471 37.948235-58.548706-22.768941 0.883451-41.080471 1.164549-45.618196 26.182274-0.843294 4.658196-5.260549 10.400627-9.557333 12.448628-22.969725 11.00298-45.537882 26.021647-69.872942 30.197961-44.373333 7.54949-75.01302-32.607373-59.914039-75.535059 8.151843-23.130353 19.596549-45.256784 31.081412-67.061961 10.480941-19.917804 28.872784-27.38698 50.718118-21.443765 14.737569 4.015686 29.113725 9.557333 43.208784 15.460392 26.945255 11.243922 53.689725 15.058824 82.883765-0.76298-2.891294-28.832627-5.300706-59.271529-9.236079-89.509647-1.325176-10.280157-8.714039-9.236078-16.665098-4.618039-12.047059 6.987294-24.254745 14.255686-37.265568 18.873725-9.276235 3.292863-15.580863 1.003922-25.21851-8.995137-17.990275-18.592627-44.333176-29.194039-67.704471-42.24502-1.606275-0.883451-8.874667 4.577882-10.681725 8.432942-16.946196 36.663216-39.795451 66.780863-77.020863 86.297098-11.966745 6.264471-18.432 23.612235-26.624 36.382117-7.308549 11.404549-13.532863 23.531922-20.239059 35.33804-2.529882-0.963765-5.019608-1.927529-7.54949-2.891295l9.396706-31.322353c-42.927686 30.278275-49.433098 82.361725-76.458667 122.317804l5.541647 3.614118 42.927686-64.25098c1.927529 1.003922 3.855059 2.007843 5.822746 3.011764-6.304627 13.773804-10.922667 28.631843-19.235138 41.080471-15.219451 22.768941-14.617098 44.975686-7.348706 70.475294 11.846275 41.562353 19.998118 84.168784 29.796393 126.293333 1.485804 6.465255 3.573961 12.769882 6.304627 22.528 19.435922-16.183216 37.265569-31.041255 59.271529-49.352784-9.798275 23.331137-21.283137 40.719059-24.05396 59.432157-5.541647 37.50651-5.662118 75.816157-9.356549 113.643922-1.084235 11.324235-6.625882 22.206745-10.11953 33.290039-11.364392-5.782588-26.463373-8.754196-33.330196-17.909961-14.576941-19.355608-29.394824-40.638745-35.940392-63.447843-11.52502-40.156863-16.906039-82.040471-25.017725-123.161098-0.321255-1.686588-2.048-3.092078-6.78651-9.958902-2.81098 5.50149-5.099922 9.436863-6.866824 13.573019-14.496627 33.330196-31.36251 65.174588-35.137255 103.002353-3.654275 36.462431-31.121569 59.110902-60.998274 77.502745-0.562196 0.361412-1.28502 0.401569-1.887373 0.722824-30.920784 15.701333-37.586824 23.732706-47.304784-22.005961-14.898196-70.033569-7.589647-135.368784 22.728784-200.543372 20.680784-44.41349 31.563294-93.324549 50.758275-138.581334 21.845333-51.561412 47.86698-101.396078 72.402823-151.792941 18.994196-39.072627 30.559373-78.506667 20.560314-123.120941-3.855059-17.267451-2.69051-38.550588 4.096-54.693647 13.894275-32.968784 14.336-64.532078 3.734588-97.500863-3.212549-9.958902-5.822745-20.158745-5.099921-34.293961 8.232157 5.38102 18.231216 9.276235 24.335058 16.464314 15.942275 18.753255 29.756235 39.273412 45.337099 58.347922 3.694431 4.537725 11.565176 9.195922 16.705254 8.432941 35.940392-5.38102 70.555608 15.982431 80.51451 51.119686 9.356549 33.129412 16.665098 36.542745 49.714196 28.390902 42.767059-10.561255 85.935686-19.556392 128.943687-29.274353 2.449569-0.562196 4.818824-1.606275 9.075451-3.051921-7.42902-29.31451-22.809098-52.886588-44.29302-72.161883-21.524078-19.315451-20.560314-30.880627 4.577882-46.019764C517.621961 27.507451 537.700392 13.452549 558.180392 0h8.031373z m97.500862 364.584157c-1.204706-1.847216-2.369255-3.734588-3.57396-5.581804-9.115608 4.417255-21.403608 6.666039-26.463373 13.894274-5.059765 7.268392-2.891294 19.556392-3.895216 29.675922 1.927529 0.321255 3.855059 0.682667 5.782589 1.003922 9.356549-12.970667 18.753255-25.98149 28.14996-38.992314z m-126.534274 358.962196c-16.745412-3.212549-39.67498 20.158745-46.300863 45.015843 14.416314-14.014745 29.95702-29.153882 46.300863-45.015843z" p-id="3194"></path><path d="M668.692078 607.61349c2.81098 3.33302 5.621961 7.228235 8.995138 10.561255 3.373176 3.33302 8.111686 9.396706 10.882509 8.714039 35.819922-8.95498 57.544784 17.347765 79.229491 35.578981 41.60251 34.976627 75.454745 78.185412 103.403921 124.928 16.665098 27.90902 28.310588 58.789647 43.008 87.943529 8.071529 15.942275 17.428078 31.242039 26.945255 46.381177 16.464314 26.222431 33.611294 52.043294 50.196079 78.225568 2.650353 4.176314 3.734588 9.356549 5.541647 14.054902-1.566118 1.28502-3.132235 2.570039-4.698353 3.895216-24.375216-26.423216-48.750431-52.886588-75.776-82.201098-1.525961 9.878588-2.489725 15.781647-3.814902 24.415372-15.62102-11.043137-31.442824-19.917804-44.533961-31.844392-36.743529-33.53098-73.406745-67.262745-108.182588-102.801568-47.144157-48.148078-70.796549-110.230588-95.573334-171.188706-5.782588-14.255686-18.954039-30.760157 4.377098-46.662275z" p-id="3195"></path><path d="M663.712627 364.584157c-9.396706 13.010824-18.793412 25.98149-28.190117 38.992314-1.927529-0.321255-3.855059-0.682667-5.782588-1.003922 1.003922-10.079373-1.164549-22.407529 3.895215-29.675922 5.059765-7.268392 17.347765-9.47702 26.463373-13.894274 1.204706 1.847216 2.409412 3.734588 3.614117 5.581804zM537.178353 723.546353c-16.343843 15.902118-31.884549 31.001098-46.300863 45.015843 6.625882-24.897255 29.555451-48.228392 46.300863-45.015843z" fill="#FFFFFF" p-id="3196"></path></svg>